<?xml version="1.0" standalone="no"?>
<!DOCTYPE svg PUBLIC "-//W3C//DTD SVG 20010904//EN"
 "http://www.w3.org/TR/2001/REC-SVG-20010904/DTD/svg10.dtd">
<svg version="1.0" xmlns="http://www.w3.org/2000/svg"
 width="981.000000pt" height="981.000000pt" viewBox="0 0 981.000000 981.000000"
 preserveAspectRatio="xMidYMid meet">

<g transform="translate(0.000000,981.000000) scale(0.100000,-0.100000)"
fill="#000000" stroke="none">
<path d="M0 4905 l0 -4905 4905 0 4905 0 0 4905 0 4905 -4905 0 -4905 0 0
-4905z m3602 3214 c832 -612 1530 -1125 1550 -1141 l38 -30 -158 -116 c-86
-63 -250 -184 -364 -268 l-207 -153 -1188 873 -1188 873 -3 536 c-1 296 0 537
3 537 3 0 686 -500 1517 -1111z m3773 -2780 c196 -144 354 -266 353 -270 -3
-8 -5634 -4149 -5643 -4149 -3 0 -5 238 -5 528 l0 528 1898 1394 c1043 767
2037 1499 2207 1626 563 421 810 602 822 603 6 1 172 -117 368 -260z m595
-4259 l0 -480 -1217 0 c-669 0 -1214 2 -1212 4 2 2 296 218 653 480 l648 476
564 0 564 0 0 -480z"/>
</g>
</svg>
